Coordinates
version=1
nRows=21
nColumns=12
inDegrees=yes

Units are S.I. units (second, meters, Newtons, ...)
Angles are in degrees

endheader
time	SC_y	SC_z	SC_x	AC_y	AC_z	AC_x	GH_y	GH_z	GH_yy	EL_x	PS_y
       0.0              -28.38          7.915          32.89          33.54          -12.4         -19.56           16.5          50.69         -152.7          28.79          116.5
   0.04211              -28.38          7.917          32.89          33.55          -12.4         -19.56          16.48          50.69         -152.7          28.79          116.5
   0.08421              -28.38          7.919           32.9          33.55          -12.4         -19.55          16.45          50.69         -152.7          28.79          116.5
    0.1263              -28.38          7.921          32.91          33.55          -12.4         -19.55          16.42          50.69         -152.6          28.79          116.5
    0.1684              -28.37          7.923          32.91          33.55          -12.4         -19.54          16.39          50.69         -152.6          28.79          116.5
    0.2105              -28.37          7.926          32.92          33.55          -12.4         -19.53          16.36          50.68         -152.6          28.79          116.5
    0.2526              -28.37          7.928          32.93          33.55          -12.4         -19.53          16.33          50.68         -152.6          28.79          116.5
    0.2947              -28.37          7.931          32.94          33.56         -12.39         -19.52          16.29          50.68         -152.6          28.79          116.5
    0.3369              -28.37          7.933          32.95          33.56         -12.39         -19.51          16.26          50.68         -152.6          28.79          116.4
     0.379              -28.37          7.936          32.96          33.56         -12.39         -19.51          16.21          50.67         -152.6          28.79          116.4
    0.4211              -28.37           7.94          32.97          33.56         -12.39          -19.5          16.17          50.67         -152.5           28.8          116.4
    0.4632              -28.37          7.943          32.98          33.57         -12.39         -19.49          16.12          50.67         -152.5           28.8          116.4
    0.5053              -28.37          7.947          32.99          33.57         -12.38         -19.48          16.07          50.66         -152.5           28.8          116.4
    0.5474              -28.37          7.951          33.01          33.57         -12.38         -19.47          16.02          50.66         -152.5           28.8          116.4
    0.5895              -28.36          7.955          33.02          33.58         -12.38         -19.45          15.96          50.65         -152.5           28.8          116.3
    0.6316              -28.36           7.96          33.04          33.58         -12.38         -19.44          15.89          50.65         -152.4           28.8          116.3
    0.6737              -28.36          7.965          33.06          33.59         -12.37         -19.43          15.82          50.64         -152.4          28.81          116.3
    0.7158              -28.36          7.971          33.08          33.59         -12.37         -19.41          15.75          50.64         -152.4          28.81          116.3
    0.7579              -28.36          7.977           33.1           33.6         -12.37          -19.4          15.66          50.63         -152.3          28.81          116.2
       0.8              -28.35          7.984          33.12           33.6         -12.36         -19.38          15.57          50.62         -152.3          28.81          116.2
    0.8421              -28.35          7.991          33.14          33.61         -12.36         -19.36          15.47          50.62         -152.3          28.82          116.2
